<svg width="512" height="512" viewBox="0 0 512 512" fill="none" xmlns="http://www.w3.org/2000/svg">
<path d="M423.933 239.863C423.849 241.345 423.194 241.603 422.034 240.636C418.658 237.817 414.559 236.174 410.678 234.144C397.978 227.507 384.304 224.366 370.008 223.56C360.584 223.028 351.159 223.141 341.769 224.333C331.286 225.67 321.056 228.006 310.926 230.777C304.962 232.404 299.469 235.594 293.052 235.771C292.061 235.803 290.834 236.448 290.23 235.497C289.608 234.547 290.902 234.047 291.456 233.435C298.041 226.138 305.953 220.338 314.185 214.877C326.616 206.613 340.106 200.733 354.973 197.978C366.043 195.932 377.198 195.465 388.369 197.527C390.771 197.978 392.871 199.025 394.786 200.411C403.354 206.613 411.283 213.508 417.7 221.756C421.194 226.25 423.63 231.421 424 237.221C423.966 238.107 423.983 238.993 423.933 239.863ZM345.313 202.618C332.361 206.774 320.266 212.364 309.767 220.918C305.802 224.14 301.132 226.54 297.571 230.262C297.016 230.842 295.622 231.132 296.328 232.227C296.966 233.21 298.209 232.952 299.133 232.581C303.114 230.954 307.281 229.923 311.363 228.635C319.964 225.912 328.884 224.591 337.72 222.803C346.473 221.031 355.292 221.192 363.994 221.095C372.343 220.999 380.877 222.062 389.192 224.011C394.333 225.203 399.793 226.331 404.211 228.473C408.427 230.519 413.45 231.55 416.978 234.933C417.381 235.32 417.801 235.803 418.305 235.932C419.363 236.19 420.455 237.301 421.48 236.496C422.589 235.642 421.749 234.482 421.312 233.5C417.885 225.654 413.181 218.776 406.714 212.734C401.472 207.837 395.223 204.39 389.663 199.992C388.369 198.977 386.555 198.8 384.791 198.8C381.028 198.8 377.265 198.687 373.502 198.639C363.708 197.479 354.452 199.686 345.313 202.618Z" fill="black"/>
<path d="M373.469 198.623C363.709 197.479 354.452 199.686 345.314 202.618C332.362 206.774 320.266 212.364 309.767 220.918C305.802 224.14 301.132 226.54 297.571 230.262C297.017 230.842 295.622 231.132 296.328 232.227C296.966 233.21 298.209 232.952 299.133 232.581C303.115 230.954 307.281 229.923 311.363 228.635C319.964 225.912 328.884 224.591 337.721 222.803C346.473 221.031 355.292 221.192 363.994 221.095C372.343 220.999 380.877 222.062 389.193 224.011C394.333 225.203 399.793 226.331 404.211 228.473C408.427 230.519 413.45 231.55 416.978 234.933C417.381 235.32 417.801 235.803 418.305 235.932C419.364 236.19 420.455 237.301 421.48 236.496C422.589 235.642 421.749 234.482 421.312 233.5C417.885 225.654 413.182 218.776 406.714 212.734C401.473 207.837 395.223 204.39 389.663 199.992C388.369 198.977 386.555 198.8 384.791 198.8C380.995 198.784 377.232 198.687 373.469 198.623Z" fill="black"/>
<path d="M312.706 268.297C315.864 261.627 321.508 257.181 327.674 253.395C331.47 251.059 335.233 248.433 339.987 248.015C339.097 249.207 338.358 250.496 337.77 251.865C337.619 251.752 337.484 251.672 337.333 251.607C337.115 251.51 336.913 251.478 336.712 251.478C336.644 251.478 336.577 251.478 336.51 251.494C336.376 251.51 336.241 251.543 336.124 251.591C335.939 251.655 335.754 251.752 335.569 251.849C335.754 251.752 335.939 251.655 336.124 251.591C336.258 251.543 336.376 251.51 336.51 251.494C336.577 251.478 336.644 251.478 336.712 251.478C336.913 251.478 337.115 251.51 337.333 251.607C337.468 251.672 337.619 251.752 337.77 251.865C336.88 253.959 336.376 256.247 336.325 258.631C336.208 264.72 339.131 270.197 343.75 273.725C335.771 272.066 327.909 269.843 319.661 269.344C314.705 269.038 314.352 268.909 313.327 273.725C313.126 274.676 313.092 275.675 313.092 275.723C313.075 276.98 313.059 277.302 313.059 277.64C313.042 278.542 313.697 279.847 312.118 279.992C310.556 280.121 310.841 278.687 310.757 277.817C310.488 274.483 311.278 271.341 312.706 268.297Z" fill="black"/>
<path d="M375.636 259.308C375.652 258.567 375.619 257.826 375.535 257.101C375.535 257.101 375.535 257.101 375.552 257.101C375.82 256.827 376.089 256.553 376.358 256.279C376.089 256.553 375.82 256.827 375.552 257.101C375.552 257.101 375.552 257.101 375.535 257.101C375.384 255.699 375.081 254.346 374.644 253.041C387.882 257.374 400.129 264.269 411.72 272.904C412.476 273.468 414.055 274.096 412.761 275.449C411.669 276.609 410.964 275.401 410.225 274.837C404.664 270.633 398.852 266.799 392.67 263.48C391.225 262.707 390.032 261.788 389.444 264.414C388.924 266.654 386.857 267.958 384.841 269.054C378.827 272.292 372.612 274.273 366.178 275.095C371.738 271.841 375.518 266.009 375.636 259.308Z" fill="black"/>
<path d="M88.0538 231.373C88.6417 225.59 91.2624 220.499 94.9078 216.134C101.627 208.095 109.792 201.474 118.578 195.562C120.56 194.225 122.693 193.258 125.096 192.888C136.334 191.196 147.472 192.034 158.475 194.45C173.225 197.705 186.496 204.036 198.625 212.702C206.655 218.437 214.348 224.495 220.665 232.018C221.202 232.646 222.462 233.194 221.807 234.112C221.152 235.03 219.959 234.354 218.968 234.289C212.568 233.903 207.192 230.536 201.296 228.699C191.267 225.59 181.12 222.916 170.705 221.224C161.348 219.71 151.94 219.291 142.499 219.501C128.187 219.823 114.395 222.497 101.459 228.715C97.5116 230.616 93.3623 232.114 89.8849 234.821C88.6753 235.755 88.037 235.497 88.0034 233.999C87.9866 233.129 88.037 232.259 88.0538 231.373ZM139.929 194.467C136.166 194.402 132.403 194.386 128.64 194.257C126.876 194.193 125.045 194.322 123.718 195.288C118.006 199.493 111.64 202.731 106.213 207.451C99.5275 213.266 94.5886 219.984 90.876 227.717C90.4056 228.683 89.5153 229.811 90.6072 230.697C91.5984 231.518 92.7407 230.455 93.799 230.23C94.303 230.117 94.7398 229.65 95.1597 229.279C98.8051 226.009 103.862 225.155 108.145 223.254C112.647 221.257 118.141 220.322 123.315 219.291C131.698 217.632 140.265 216.859 148.597 217.229C157.282 217.616 166.119 217.745 174.787 219.823C183.539 221.917 192.409 223.528 200.909 226.541C204.941 227.958 209.074 229.15 212.988 230.89C213.895 231.293 215.121 231.599 215.793 230.632C216.532 229.553 215.155 229.215 214.617 228.619C211.19 224.785 206.604 222.223 202.774 218.872C192.611 209.98 180.717 203.987 167.933 199.412C158.895 196.174 149.74 193.661 139.929 194.467Z" fill="black"/>
<path d="M139.93 194.467C149.741 193.661 158.896 196.158 167.934 199.396C180.718 203.971 192.612 209.964 202.792 218.872C206.622 222.223 211.208 224.785 214.635 228.619C215.173 229.215 216.55 229.553 215.811 230.632C215.139 231.599 213.913 231.293 213.006 230.89C209.092 229.134 204.959 227.958 200.927 226.541C192.427 223.544 183.557 221.917 174.805 219.823C166.137 217.761 157.3 217.616 148.615 217.229C140.266 216.859 131.716 217.632 123.333 219.291C118.159 220.306 112.666 221.257 108.163 223.254C103.88 225.155 98.8232 226.009 95.1778 229.279C94.7579 229.65 94.3211 230.117 93.8171 230.23C92.7588 230.455 91.6165 231.518 90.6253 230.697C89.5502 229.811 90.4405 228.683 90.8941 227.717C94.6067 219.984 99.5456 213.266 106.232 207.451C111.658 202.731 118.024 199.493 123.736 195.288C125.063 194.322 126.894 194.193 128.658 194.257C132.421 194.386 136.184 194.402 139.93 194.467Z" fill="black"/>
<path d="M198.12 266.137C195.214 259.371 189.737 254.748 183.706 250.736C179.994 248.272 176.332 245.533 171.594 244.953C172.434 246.177 173.14 247.482 173.661 248.884C173.812 248.771 173.963 248.691 174.097 248.642C174.316 248.562 174.517 248.529 174.719 248.546C174.786 248.546 174.853 248.562 174.92 248.562C175.055 248.578 175.172 248.626 175.307 248.674C175.492 248.755 175.676 248.852 175.861 248.948C175.676 248.836 175.508 248.739 175.307 248.674C175.189 248.626 175.055 248.594 174.92 248.562C174.853 248.546 174.786 248.546 174.719 248.546C174.517 248.529 174.316 248.562 174.097 248.642C173.963 248.691 173.812 248.771 173.661 248.884C174.467 251.01 174.904 253.298 174.853 255.698C174.736 261.788 171.628 267.168 166.874 270.535C174.904 269.15 182.85 267.184 191.098 266.959C196.054 266.83 196.423 266.701 197.263 271.55C197.431 272.516 197.414 273.499 197.431 273.564C197.414 274.82 197.398 275.142 197.398 275.481C197.381 276.383 196.675 277.671 198.254 277.865C199.817 278.058 199.581 276.608 199.699 275.738C200.119 272.404 199.447 269.23 198.12 266.137Z" fill="black"/>
<path d="M135.562 255.055C135.579 254.314 135.646 253.573 135.747 252.848C135.747 252.848 135.747 252.848 135.73 252.848C135.478 252.574 135.209 252.284 134.958 252.01C135.209 252.284 135.478 252.574 135.73 252.848C135.73 252.848 135.73 252.848 135.747 252.848C135.949 251.446 136.301 250.109 136.789 248.82C123.4 252.703 110.901 259.195 99.0077 267.427C98.2349 267.958 96.639 268.538 97.8822 269.94C98.9237 271.132 99.6797 269.956 100.436 269.424C106.147 265.413 112.094 261.772 118.394 258.663C119.872 257.938 121.082 257.068 121.586 259.71C122.022 261.966 124.038 263.335 126.004 264.495C131.883 267.942 138.032 270.117 144.432 271.164C139.006 267.717 135.445 261.756 135.562 255.055Z" fill="black"/>
<path d="M173.662 248.903C173.662 248.903 173.683 248.882 173.662 248.903C173.683 248.882 173.662 248.903 173.662 248.903Z" fill="black"/>
</svg>
